<svg xmlns="http://www.w3.org/2000/svg" viewBox="0 0 637 120" width="637" height="120" xmlns:c2pa="http://c2pa.org/manifest"><metadata><c2pa:manifest>AAAWgmp1bWIAAAAeanVtZGMycGEAEQAQgAAAqgA4m3EDYzJwYQAAABZcanVtYgAAAEdqdW1kYzJtYQARABCAAACqADibcQN1cm46YzJwYTo3Yzc4N2VjZi00NzhkLTQ4ZWMtYjJmNS0wMGMxN2IyZjBiNTYAAAADl2p1bWIAAAApanVtZGMyYXMAEQAQgAAAqgA4m3EDYzJwYS5hc3NlcnRpb25zAAAAALxqdW1iAAAARGp1bWRjYm9yABEAEIAAAKoAOJtxE2MycGEuaW5ncmVkaWVudC52MwAAAAAYYzJzaKI/f52OOCvjiCKADhD7QdUAAABwY2JvcqNpZGM6Zm9ybWF0bWltYWdlL3N2Zyt4bWxqaW5zdGFuY2VJRHgseG1wOmlpZDo3YWI3NDdiNi1kNjA2LTQ0YmEtYTNlOS02ZjZiMjczZTc0YzhscmVsYXRpb25zaGlwaHBhcmVudE9mAAAB4mp1bWIAAABBanVtZGNib3IAEQAQgAAAqgA4m3ETYzJwYS5hY3Rpb25zLnYyAAAAABhjMnNo2IHG9SNuZ0KFO1Xt4JYLJQAAAZljYm9yomdhY3Rpb25zgqJmYWN0aW9ua2MycGEub3BlbmVkanBhcmFtZXRlcnOha2luZ3JlZGllbnRzgaJjdXJseC1zZWxmI2p1bWJmPWMycGEuYXNzZXJ0aW9ucy9jMnBhLmluZ3JlZGllbnQudjNkaGFzaFgg1K2gm/IXSMOkrY/cjyCwnO1YTaK9pDQt/fJ3WsofeCCkZmFjdGlvbngdY29tLmFudGhyb3BpYy5jbGF1ZGUucHJvdmlkZWRqcGFyYW1ldGVyc6F4H2NvbS5hbnRocm9waWMub3JpZ2luLWNvbmZpZGVuY2VndW5rbm93bmtkZXNjcmlwdGlvbnhmQ2xhdWRlIHByb3ZpZGVkIHRoaXMgZmlsZSBhdCB0aGUgcmVxdWVzdCBvZiBhIHVzZXIgYW5kIG1heSBoYXZlIGNyZWF0ZWQgb3IgbW9kaWZpZWQgdGhlIGZpbGUgY29udGVudHMubXNvZnR3YXJlQWdlbnShZG5hbWVmQ2xhdWRlcmFsbEFjdGlvbnNJbmNsdWRlZPUAAADIanVtYgAAAEBqdW1kY2JvcgARABCAAACqADibcRNjMnBhLmhhc2guZGF0YQAAAAAYYzJzaJ4SMIb4O56EmQ5OQ8tyNgwAAACAY2JvcqVjYWxnZnNoYTI1NmNwYWRNAAAAAAAAAAAAAAAAAGRoYXNoWCDSxNL8IL8WrzuamHDTZVzULuIjJeLfo2tHJUXDgv3D/2RuYW1lbmp1bWJmIG1hbmlmZXN0amV4Y2x1c2lvbnOBomVzdGFydBiWZmxlbmd0aBkeBAAAAj5qdW1iAAAAJ2p1bWRjMmNsABEAEIAAAKoAOJtxA2MycGEuY2xhaW0udjIAAAACD2Nib3KlY2FsZ2ZzaGEyNTZpc2lnbmF0dXJleE1zZWxmI2p1bWJmPS9jMnBhL3VybjpjMnBhOjdjNzg3ZWNmLTQ3OGQtNDhlYy1iMmY1LTAwYzE3YjJmMGI1Ni9jMnBhLnNpZ25hdHVyZWppbnN0YW5jZUlEeCx4bXA6aWlkOmJmODFkZDg5LTdlNGYtNDZjNy1iN2QzLWZmOWYxNTBiMDIwM3JjcmVhdGVkX2Fzc2VydGlvbnODomN1cmx4LXNlbGYjanVtYmY9YzJwYS5hc3NlcnRpb25zL2MycGEuaW5ncmVkaWVudC52M2RoYXNoWCDUraCb8hdIw6Stj9yPILCc7VhNor2kNC398ndayh94IKJjdXJseCpzZWxmI2p1bWJmPWMycGEuYXNzZXJ0aW9ucy9jMnBhLmFjdGlvbnMudjJkaGFzaFggzXmCbxC0y52s1IjJIMmoUU+o+lCwVZmJ/P4yY9YZ0piiY3VybHgpc2VsZiNqdW1iZj1jMnBhLmFzc2VydGlvbnMvYzJwYS5oYXNoLmRhdGFkaGFzaFggfyw8zO75gGwiLhtA9TGlRSgKYNcFhXqoubVVzyPwQxF0Y2xhaW1fZ2VuZXJhdG9yX2luZm+jZG5hbWVvQW50aHJvcGljIEZpbGVzZ3ZlcnNpb25lMS4wLjBrc3BlY1ZlcnNpb25lMi40LjAAABA4anVtYgAAAChqdW1kYzJjcwARABCAAACqADibcQNjMnBhLnNpZ25hdHVyZQAAABAIY2JvctKEWQISogEmGCFZAgowggIGMIIBjaADAgECAhRA5aAK7sI50L64g/oGQgU9Z1UTADAKBggqhkjOPQQDAzBJMRcwFQYDVQQKEw5BbnRocm9waWMsIFBCQzEuMCwGA1UEAxMlQW50aHJvcGljIENvbnRlbnQgQ3JlZGVudGlhbHMgUm9vdCBDQTAeFw0yNjA4MDcxODQzNTZaFw0yODA4MDYxOTQzNTZaMEQxFzAVBgNVBAoTDkFudGhyb3BpYywgUEJDMSkwJwYDVQQDEyBBbnRocm9waWMgQ2xhdWRlIENvbnRlbnQgU2lnbmluZzBZMBMGByqGSM49AgEGCCqGSM49AwEHA0IABJh6CmvLUBgFFNU0vUKlOVtE6djd17L5SuwX0LemFisBM3dkd/3cyjxFA3Qo5S46fX0/ihY0VZ7mfb9KF703t5OjWDBWMA4GA1UdDwEB/wQEAwIHgDAVBgNVHSUEDjAMBgorBgEEAYPoXgIBMAwGA1UdEwEB/wQCMAAwHwYDVR0jBBgwFoAUzlHiBIFOZFsj+OPEz5o+nMHXXMIwCgYIKoZIzj0EAwMDZwAwZAIwMXMdFJ4BetLLVY7ORuE9noqbbAZOZn/aArXyTwFAZfKrPzxF2vPoJNf1+UCdg1XGAjBwX1zd9WGqYkqmL5SFqw1QySjr1zJfpJM9+1rdDwSPLMOPOjKuiXjoU/pUUeG9RwmhY3BhZFkNngAAAAAAAAAAAAAAAAAAAAAAAAAAAAAAAAAAAAAAAAAAAAAAAAAAAAAAAAAAAAAAAAAAAAAAAAAAAAAAAAAAAAAAAAAAAAAAAAAAAAAAAAAAAAAAAAAAAAAAAAAAAAAAAAAAAAAAAAAAAAAAAAAAAAAAAAAAAAAAAAAAAAAAAAAAAAAAAAAAAAAAAAAAAAAAAAAAAAAAAAAAAAAAAAAAAAAAAAAAAAAAAAAAAAAAAAAAAAAAAAAAAAAAAAAAAAAAAAAAAAAAAAAAAAAAAAAAAAAAAAAAAAAAAAAAAAAAAAAAAAAAAAAAAAAAAAAAAAAAAAAAAAAAAAAAAAAAAAAAAAAAAAAAAAAAAAAAAAAAAAAAAAAAAAAAAAAAAAAAAAAAAAAAAAAAAAAAAAAAAAAAAAAAAAAAAAAAAAAAAAAAAAAAAAAAAAAAAAAAAAAAAAAAAAAAAAAAAAAAAAAAAAAAAAAAAAAAAAAAAAAAAAAAAAAAAAAAAAAAAAAAAAAAAAAAAAAAAAAAAAAAAAAAAAAAAAAAAAAAAAAAAAAAAAAAAAAAAAAAAAAAAAAAAAAAAAAAAAAAAAAAAAAAAAAAAAAAAAAAAAAAAAAAAAAAAAAAAAAAAAAAAAAAAAAAAAAAAAAAAAAAAAAAAAAAAAAAAAAAAAAAAAAAAAAAAAAAAAAAAAAAAAAAAAAAAAAAAAAAAAAAAAAAAAAAAAAAAAAAAAAAAAAAAAAAAAAAAAAAAAAAAAAAAAAAAAAAAAAAAAAAAAAAAAAAAAAAAAAAAAAAAAAAAAAAAAAAAAAAAAAAAAAAAAAAAAAAAAAAAAAAAAAAAAAAAAAAAAAAAAAAAAAAAAAAAAAAAAAAAAAAAAAAAAAAAAAAAAAAAAAAAAAAAAAAAAAAAAAAAAAAAAAAAAAAAAAAAAAAAAAAAAAAAAAAAAAAAAAAAAAAAAAAAAAAAAAAAAAAAAAAAAAAAAAAAAAAAAAAAAAAAAAAAAAAAAAAAAAAAAAAAAAAAAAAAAAAAAAAAAAAAAAAAAAAAAAAAAAAAAAAAAAAAAAAAAAAAAAAAAAAAAAAAAAAAAAAAAAAAAAAAAAAAAAAAAAAAAAAAAAAAAAAAAAAAAAAAAAAAAAAAAAAAAAAAAAAAAAAAAAAAAAAAAAAAAAAAAAAAAAAAAAAAAAAAAAAAAAAAAAAAAAAAAAAAAAAAAAAAAAAAAAAAAAAAAAAAAAAAAAAAAAAAAAAAAAAAAAAAAAAAAAAAAAAAAAAAAAAAAAAAAAAAAAAAAAAAAAAAAAAAAAAAAAAAAAAAAAAAAAAAAAAAAAAAAAAAAAAAAAAAAAAAAAAAAAAAAAAAAAAAAAAAAAAAAAAAAAAAAAAAAAAAAAAAAAAAAAAAAAAAAAAAAAAAAAAAAAAAAAAAAAAAAAAAAAAAAAAAAAAAAAAAAAAAAAAAAAAAAAAAAAAAAAAAAAAAAAAAAAAAAAAAAAAAAAAAAAAAAAAAAAAAAAAAAAAAAAAAAAAAAAAAAAAAAAAAAAAAAAAAAAAAAAAAAAAAAAAAAAAAAAAAAAAAAAAAAAAAAAAAAAAAAAAAAAAAAAAAAAAAAAAAAAAAAAAAAAAAAAAAAAAAAAAAAAAAAAAAAAAAAAAAAAAAAAAAAAAAAAAAAAAAAAAAAAAAAAAAAAAAAAAAAAAAAAAAAAAAAAAAAAAAAAAAAAAAAAAAAAAAAAAAAAAAAAAAAAAAAAAAAAAAAAAAAAAAAAAAAAAAAAAAAAAAAAAAAAAAAAAAAAAAAAAAAAAAAAAAAAAAAAAAAAAAAAAAAAAAAAAAAAAAAAAAAAAAAAAAAAAAAAAAAAAAAAAAAAAAAAAAAAAAAAAAAAAAAAAAAAAAAAAAAAAAAAAAAAAAAAAAAAAAAAAAAAAAAAAAAAAAAAAAAAAAAAAAAAAAAAAAAAAAAAAAAAAAAAAAAAAAAAAAAAAAAAAAAAAAAAAAAAAAAAAAAAAAAAAAAAAAAAAAAAAAAAAAAAAAAAAAAAAAAAAAAAAAAAAAAAAAAAAAAAAAAAAAAAAAAAAAAAAAAAAAAAAAAAAAAAAAAAAAAAAAAAAAAAAAAAAAAAAAAAAAAAAAAAAAAAAAAAAAAAAAAAAAAAAAAAAAAAAAAAAAAAAAAAAAAAAAAAAAAAAAAAAAAAAAAAAAAAAAAAAAAAAAAAAAAAAAAAAAAAAAAAAAAAAAAAAAAAAAAAAAAAAAAAAAAAAAAAAAAAAAAAAAAAAAAAAAAAAAAAAAAAAAAAAAAAAAAAAAAAAAAAAAAAAAAAAAAAAAAAAAAAAAAAAAAAAAAAAAAAAAAAAAAAAAAAAAAAAAAAAAAAAAAAAAAAAAAAAAAAAAAAAAAAAAAAAAAAAAAAAAAAAAAAAAAAAAAAAAAAAAAAAAAAAAAAAAAAAAAAAAAAAAAAAAAAAAAAAAAAAAAAAAAAAAAAAAAAAAAAAAAAAAAAAAAAAAAAAAAAAAAAAAAAAAAAAAAAAAAAAAAAAAAAAAAAAAAAAAAAAAAAAAAAAAAAAAAAAAAAAAAAAAAAAAAAAAAAAAAAAAAAAAAAAAAAAAAAAAAAAAAAAAAAAAAAAAAAAAAAAAAAAAAAAAAAAAAAAAAAAAAAAAAAAAAAAAAAAAAAAAAAAAAAAAAAAAAAAAAAAAAAAAAAAAAAAAAAAAAAAAAAAAAAAAAAAAAAAAAAAAAAAAAAAAAAAAAAAAAAAAAAAAAAAAAAAAAAAAAAAAAAAAAAAAAAAAAAAAAAAAAAAAAAAAAAAAAAAAAAAAAAAAAAAAAAAAAAAAAAAAAAAAAAAAAAAAAAAAAAAAAAAAAAAAAAAAAAAAAAAAAAAAAAAAAAAAAAAAAAAAAAAAAAAAAAAAAAAAAAAAAAAAAAAAAAAAAAAAAAAAAAAAAAAAAAAAAAAAAAAAAAAAAAAAAAAAAAAAAAAAAAAAAAAAAAAAAAAAAAAAAAAAAAAAAAAAAAAAAAAAAAAAAAAAAAAAAAAAAAAAAAAAAAAAAAAAAAAAAAAAAAAAAAAAAAAAAAAAAAAAAAAAAAAAAAAAAAAAAAAAAAAAAAAAAAAAAAAAAAAAAAAAAAAAAAAAAAAAAAAAAAAAAAAAAAAAAAAAAAAAAAAAAAAAAAAAAAAAAAAAAAAAAAAAAAAAAAAAAAAAAAAAAAAAAAAAAAAAAAAAAAAAAAAAAAAAAAAAAAAAAAAAAAAAAAAAAAAAAAAAAAAAAAAAAAAAAAAAAAAAAAAAAAAAAAAAAAAAAAAAAAAAAAAAAAAAAAAAAAAAAAAAAAAAAAAAAAAAAAAAAAAAAAAAAAAAAAAAAAAAAAAAAAAAAAAAAAAAAAAAAAAAAAAAAAAAAAAAAAAAAAAAAAAAAAAAAAAAAAAAAAAAAAAAAAAAAAAAAAAAAAAAAAAAAAAAAAAAAAAAAAAAAAAAAAAAAAAAAAAAAAAAAAAAAAAAAAAAAAAAAAAAAAAAAAAAAAAAAAAAAAAAAAAAAAAAAAAAAAAAAAAAAAAAAAAAAAAAAAAAAAAAAAAAAAAAAAAAAAAAAAAAAAAAAAAAAAAAAAAAAAAAAAAAAAAAAAAAAAAAAAAAAAAAAAAAAAAAAAAAAAAAAAAAAAAAAAAAAAAAAAAAAAAAAAAAAAAAAAAAAAAAAAAAAAAAAAAAAAAAAAAAAAAAAAAAAAAAAAAAAAAAAAAAAAAAAAAAAAAAAAAAAAAAAAAAAAAAAAAAAAAAAAAAAAAAAAAAAAAAAAAAAAAAAAAAAAAAAAAAAAAAAAAAAAAAAAAAAAAAAAAAAAAAAAAAAAAAAAAAAAAAAAAAAAAAAAAAAAAAAAAAAAAAAAAAAAAAAAAAAAAAAAAAAAAAAAAAAAAAAAAAAAAAAAAAAAAAAAAAAAAAAAAAAAAAAAAAAAAAAAAAAAAAAAAAAAAAAAAAAAAAAAAAAAAAAAAAAAAAAAAAAAAAAAAAAAAAAAAAAAAAAAAAAAAAAAAAAAAAAAAAAAAAAAAAAAAAAAAAAAAAAAAAAAAAAAAAAAAAAAAAAAAAAAAAAAAAAAAAAAAAAAAAAAAAAAAAAAAAAAAAAAAAAAAAAAAAAAAAAAAAAAAAAAAAAAAAAAAAAAAAAAAAAAAAAAAAAAAAAAAAAAAAAAAAAAAAAAAAAAAAAAAAAAAAAAAAAAAAAAAAAAAAAAAAAAAAAAAAAAAAAAAAAAAAAAAAAAAAAAAAAAAAAAAAAAAAAAAAAAAAAAAAAAAAAAAAAAAAAAAAAAAAAAAAAAAAAAAAAAAAAAAAAAAAAAAAAAAAAAAAAAAAAAAAAAAAAAAAAAAAAAAAAAAAAAAAAAAAAAAAAAAAAAAAAAAAAAAAAAAAAAAAAAAAAAAAAAAAAAAAAAAAAAAAAAAAAAAAAAAAAAAAAAAAAAAAAAAAAAAAAAAAAAAAAAAAAAAAAAAAAAAAAAAAAAAAAAAAAAAAAAAAAAAAAAAAAAAAAAAAAAAAAAAAAAAAAAAAAAAAAAAAAAAAAAAAAAAAAAAAAAAAAAAAAAAAAAAAAAAAAAAAAAAAAAAAAAAAAAAAAAAAAAAAAAAAAAAAAAAAAAAAAAAAAAAAAAAAAAAAAAAAAAAAAAAAAAAAAAAAAAAAAAAAAAAAAAAAAAAAAAAAAAAAAAAAAAAAAAAAAAAAAAAAAAAAPZYQBMvg00zrB4Mxwnb08xlUsr3NddvFepFJOsKc3HXDFFE7e2dW2qpkWfSE/RC9X3IduOaZHZvh+I5NSbfSyYxWSw=</c2pa:manifest></metadata><title>Offcut-to-Order</title><g transform="translate(14 14) scale(1.4375)"><path d="M63.49 32.00C63.57 37.13 61.65 43.19 58.91 47.54C56.17 51.88 51.54 55.45 47.05 58.07C42.56 60.68 36.95 63.32 32.00 63.21C27.05 63.10 21.59 60.15 17.33 57.42C13.06 54.68 9.08 51.01 6.41 46.78C3.73 42.54 1.65 37.13 1.28 32.00C0.92 26.87 1.78 20.57 4.24 15.97C6.71 11.38 11.46 6.53 16.09 4.44C20.71 2.35 26.89 3.08 32.00 3.41C37.11 3.74 42.36 4.21 46.76 6.43C51.17 8.65 55.65 12.48 58.44 16.74C61.22 21.00 63.41 26.87 63.49 32.00Z" fill="#1E2E24"></path><path d="M29.09 15.48Q30.03 7.57 35.47 9.04Q36.66 14.11 37.74 16.24Q42.51 9.86 46.49 13.85Q44.98 18.83 44.85 21.22Q52.18 18.08 53.62 23.53Q49.83 27.09 48.52 29.09Q56.43 30.03 54.96 35.47Q49.89 36.66 47.76 37.74Q54.14 42.51 50.15 46.49Q45.17 44.98 42.78 44.85Q45.92 52.18 40.47 53.62Q36.91 49.83 34.91 48.52Q33.97 56.43 28.53 54.96Q27.34 49.89 26.26 47.76Q21.49 54.14 17.51 50.15Q19.02 45.17 19.15 42.78Q11.82 45.92 10.38 40.47Q14.17 36.91 15.48 34.91Q7.57 33.97 9.04 28.53Q14.11 27.34 16.24 26.26Q9.86 21.49 13.85 17.51Q18.83 19.02 21.22 19.15Q18.08 11.82 23.53 10.38Q27.09 14.17 29.09 15.48ZM38.02 32A6.02 6.02 0 1 0 25.98 32A6.02 6.02 0 1 0 38.02 32Z" fill="#D4E57C" fill-rule="evenodd"></path><circle cx="32" cy="32" r="2.24" fill="#D4E57C"></circle></g><path d="M146.11 92.58L146.11 92.58Q138.44 92.58 134.38 87.95Q130.33 83.31 130.33 74.55L130.33 74.55L130.33 44.15Q130.33 35.93 134.35 31.67Q138.36 27.42 146.11 27.42L146.11 27.42Q153.85 27.42 157.87 31.67Q161.89 35.93 161.89 44.15L161.89 44.15L161.89 74.55Q161.89 83.31 157.84 87.95Q153.78 92.58 146.11 92.58ZM146.22 80.80L146.22 80.80Q149.13 80.80 149.13 75.16L149.13 75.16L149.13 43.93Q149.13 39.20 146.29 39.20L146.29 39.20Q143.09 39.20 143.09 44.04L143.09 44.04L143.09 75.24Q143.09 78.22 143.82 79.51Q144.55 80.80 146.22 80.80ZM179.93 92L167.05 92L167.05 28L192.65 28L192.65 40.47L179.93 40.47L179.93 50.65L192 50.65L192 62.98L179.93 62.98L179.93 92ZM209.64 92L196.76 92L196.76 28L222.36 28L222.36 40.47L209.64 40.47L209.64 50.65L221.71 50.65L221.71 62.98L209.64 62.98L209.64 92ZM241.38 92.58L241.38 92.58Q234.44 92.58 230.20 88.25Q225.96 83.93 225.96 76.15L225.96 76.15L225.96 46.62Q225.96 37.31 229.65 32.36Q233.35 27.42 241.67 27.42L241.67 27.42Q246.22 27.42 249.76 29.09Q253.31 30.76 255.35 34.09Q257.38 37.42 257.38 42.47L257.38 42.47L257.38 53.53L244.65 53.53L244.65 44.07Q244.65 41.20 243.93 40.20Q243.20 39.20 241.67 39.20L241.67 39.20Q239.89 39.20 239.27 40.49Q238.65 41.78 238.65 43.93L238.65 43.93L238.65 75.96Q238.65 78.62 239.44 79.71Q240.22 80.80 241.67 80.80L241.67 80.80Q243.31 80.80 243.98 79.45Q244.65 78.11 244.65 75.96L244.65 75.96L244.65 64.44L257.53 64.44L257.53 76.55Q257.53 84.98 253.27 88.78Q249.02 92.58 241.38 92.58ZM276.58 92.58L276.58 92.58Q268.58 92.58 264.80 88.09Q261.02 83.60 261.02 74.87L261.02 74.87L261.02 28L273.45 28L273.45 74.36Q273.45 75.96 273.64 77.44Q273.82 78.91 274.47 79.85Q275.13 80.80 276.58 80.80L276.58 80.80Q278.07 80.80 278.73 79.87Q279.38 78.95 279.55 77.45Q279.71 75.96 279.71 74.36L279.71 74.36L279.71 28L292.15 28L292.15 74.87Q292.15 83.60 288.36 88.09Q284.58 92.58 276.58 92.58ZM315.35 92L302.55 92L302.55 40.29L294.95 40.29L294.95 28L322.95 28L322.95 40.29L315.35 40.29L315.35 92ZM344.62 73.49L325.85 73.49L325.85 65.05L344.62 65.05L344.62 73.49ZM367.96 92L355.16 92L355.16 40.29L347.56 40.29L347.56 28L375.56 28L375.56 40.29L367.96 40.29L367.96 92ZM394.40 92.58L394.40 92.58Q386.73 92.58 382.67 87.95Q378.62 83.31 378.62 74.55L378.62 74.55L378.62 44.15Q378.62 35.93 382.64 31.67Q386.65 27.42 394.40 27.42L394.40 27.42Q402.15 27.42 406.16 31.67Q410.18 35.93 410.18 44.15L410.18 44.15L410.18 74.55Q410.18 83.31 406.13 87.95Q402.07 92.58 394.40 92.58ZM394.51 80.80L394.51 80.80Q397.42 80.80 397.42 75.16L397.42 75.16L397.42 43.93Q397.42 39.20 394.58 39.20L394.58 39.20Q391.38 39.20 391.38 44.04L391.38 44.04L391.38 75.24Q391.38 78.22 392.11 79.51Q392.84 80.80 394.51 80.80ZM433.45 73.49L414.69 73.49L414.69 65.05L433.45 65.05L433.45 73.49ZM453.78 92.58L453.78 92.58Q446.11 92.58 442.05 87.95Q438 83.31 438 74.55L438 74.55L438 44.15Q438 35.93 442.02 31.67Q446.04 27.42 453.78 27.42L453.78 27.42Q461.53 27.42 465.55 31.67Q469.56 35.93 469.56 44.15L469.56 44.15L469.56 74.55Q469.56 83.31 465.51 87.95Q461.45 92.58 453.78 92.58ZM453.89 80.80L453.89 80.80Q456.80 80.80 456.80 75.16L456.80 75.16L456.80 43.93Q456.80 39.20 453.96 39.20L453.96 39.20Q450.76 39.20 450.76 44.04L450.76 44.04L450.76 75.24Q450.76 78.22 451.49 79.51Q452.22 80.80 453.89 80.80ZM487.67 92L474.73 92L474.73 28L494.36 28Q499.27 28 501.78 30.24Q504.29 32.47 505.15 36.49Q506 40.51 506 45.93L506 45.93Q506 51.16 504.67 54.29Q503.35 57.42 499.67 58.62L499.67 58.62Q502.69 59.24 503.91 61.62Q505.13 64 505.13 67.78L505.13 67.78L505.13 92L492.51 92L492.51 66.95Q492.51 64.15 491.36 63.47Q490.22 62.80 487.67 62.80L487.67 62.80L487.67 92ZM487.75 39.85L487.75 51.71L490.84 51.71Q493.49 51.71 493.49 45.93L493.49 45.93Q493.49 42.18 492.91 41.02Q492.33 39.85 490.73 39.85L490.73 39.85L487.75 39.85ZM527.38 92L510.22 92L510.22 28L527.82 28Q534.73 28 538.22 31.84Q541.71 35.67 541.71 43.05L541.71 43.05L541.71 73.02Q541.71 82.11 538.53 87.05Q535.35 92 527.38 92L527.38 92ZM523.09 39.20L523.09 80.69L525.31 80.69Q528.84 80.69 528.84 77.27L528.84 77.27L528.84 44.25Q528.84 41.05 527.98 40.13Q527.13 39.20 524.51 39.20L524.51 39.20L523.09 39.20ZM573.38 92L546.95 92L546.95 28L572.55 28L572.55 40.36L559.96 40.36L559.96 52.84L572.04 52.84L572.04 64.87L559.96 64.87L559.96 79.53L573.38 79.53L573.38 92ZM590.55 92L577.60 92L577.60 28L597.24 28Q602.15 28 604.65 30.24Q607.16 32.47 608.02 36.49Q608.87 40.51 608.87 45.93L608.87 45.93Q608.87 51.16 607.55 54.29Q606.22 57.42 602.55 58.62L602.55 58.62Q605.56 59.24 606.78 61.62Q608 64 608 67.78L608 67.78L608 92L595.38 92L595.38 66.95Q595.38 64.15 594.24 63.47Q593.09 62.80 590.55 62.80L590.55 62.80L590.55 92ZM590.62 39.85L590.62 51.71L593.71 51.71Q596.36 51.71 596.36 45.93L596.36 45.93Q596.36 42.18 595.78 41.02Q595.20 39.85 593.60 39.85L593.60 39.85L590.62 39.85Z" fill="#1E2E24"></path></svg>