<svg xmlns="http://www.w3.org/2000/svg" viewBox="0 0 515 120" width="515" height="120" xmlns:c2pa="http://c2pa.org/manifest"><metadata><c2pa:manifest>AAAWgmp1bWIAAAAeanVtZGMycGEAEQAQgAAAqgA4m3EDYzJwYQAAABZcanVtYgAAAEdqdW1kYzJtYQARABCAAACqADibcQN1cm46YzJwYTo1MzY0NTI0YS05MjNkLTQzMGQtYmEwZi1kMjQ0OTYwY2FmMzUAAAADl2p1bWIAAAApanVtZGMyYXMAEQAQgAAAqgA4m3EDYzJwYS5hc3NlcnRpb25zAAAAALxqdW1iAAAARGp1bWRjYm9yABEAEIAAAKoAOJtxE2MycGEuaW5ncmVkaWVudC52MwAAAAAYYzJzaPhDEvt3Cl56VNti9HLJsB0AAABwY2JvcqNpZGM6Zm9ybWF0bWltYWdlL3N2Zyt4bWxqaW5zdGFuY2VJRHgseG1wOmlpZDo3YzEyZjkwNy1mOWFjLTQ5OGEtOTUwMC0wMjAwMzNjYzMxMTRscmVsYXRpb25zaGlwaHBhcmVudE9mAAAB4mp1bWIAAABBanVtZGNib3IAEQAQgAAAqgA4m3ETYzJwYS5hY3Rpb25zLnYyAAAAABhjMnNowHL8MpDN2b70jEYVhtGY5QAAAZljYm9yomdhY3Rpb25zgqJmYWN0aW9ua2MycGEub3BlbmVkanBhcmFtZXRlcnOha2luZ3JlZGllbnRzgaJjdXJseC1zZWxmI2p1bWJmPWMycGEuYXNzZXJ0aW9ucy9jMnBhLmluZ3JlZGllbnQudjNkaGFzaFgglMxKhOKhaNTWWo1Acp9685d9bQLzaMKhtbysKoH4pxSkZmFjdGlvbngdY29tLmFudGhyb3BpYy5jbGF1ZGUucHJvdmlkZWRqcGFyYW1ldGVyc6F4H2NvbS5hbnRocm9waWMub3JpZ2luLWNvbmZpZGVuY2VndW5rbm93bmtkZXNjcmlwdGlvbnhmQ2xhdWRlIHByb3ZpZGVkIHRoaXMgZmlsZSBhdCB0aGUgcmVxdWVzdCBvZiBhIHVzZXIgYW5kIG1heSBoYXZlIGNyZWF0ZWQgb3IgbW9kaWZpZWQgdGhlIGZpbGUgY29udGVudHMubXNvZnR3YXJlQWdlbnShZG5hbWVmQ2xhdWRlcmFsbEFjdGlvbnNJbmNsdWRlZPUAAADIanVtYgAAAEBqdW1kY2JvcgARABCAAACqADibcRNjMnBhLmhhc2guZGF0YQAAAAAYYzJzaC51VdTZMyVBAcx6JLxcPfkAAACAY2JvcqVjYWxnZnNoYTI1NmNwYWRNAAAAAAAAAAAAAAAAAGRoYXNoWCDXPEZ/xTZd0jEgoPZQMLYRPcctJ4tmhIMXoiRmYQnepWRuYW1lbmp1bWJmIG1hbmlmZXN0amV4Y2x1c2lvbnOBomVzdGFydBiWZmxlbmd0aBkeBAAAAj5qdW1iAAAAJ2p1bWRjMmNsABEAEIAAAKoAOJtxA2MycGEuY2xhaW0udjIAAAACD2Nib3KlY2FsZ2ZzaGEyNTZpc2lnbmF0dXJleE1zZWxmI2p1bWJmPS9jMnBhL3VybjpjMnBhOjUzNjQ1MjRhLTkyM2QtNDMwZC1iYTBmLWQyNDQ5NjBjYWYzNS9jMnBhLnNpZ25hdHVyZWppbnN0YW5jZUlEeCx4bXA6aWlkOjkzMzUxMzk5LWYwYmMtNDE3My1iMTE4LWNhMDRlZjcxZWJkZnJjcmVhdGVkX2Fzc2VydGlvbnODomN1cmx4LXNlbGYjanVtYmY9YzJwYS5hc3NlcnRpb25zL2MycGEuaW5ncmVkaWVudC52M2RoYXNoWCCUzEqE4qFo1NZajUByn3rzl31tAvNowqG1vKwqgfinFKJjdXJseCpzZWxmI2p1bWJmPWMycGEuYXNzZXJ0aW9ucy9jMnBhLmFjdGlvbnMudjJkaGFzaFggcYWNHGW1vSznLY+aj8lCQ0tOQZid+Si+89apfL5EFUiiY3VybHgpc2VsZiNqdW1iZj1jMnBhLmFzc2VydGlvbnMvYzJwYS5oYXNoLmRhdGFkaGFzaFggEsvAI7mpcz59b8QVpZ4q1Exj31YprfKsa4Q9cdeE8Yp0Y2xhaW1fZ2VuZXJhdG9yX2luZm+jZG5hbWVvQW50aHJvcGljIEZpbGVzZ3ZlcnNpb25lMS4wLjBrc3BlY1ZlcnNpb25lMi40LjAAABA4anVtYgAAAChqdW1kYzJjcwARABCAAACqADibcQNjMnBhLnNpZ25hdHVyZQAAABAIY2JvctKEWQISogEmGCFZAgowggIGMIIBjaADAgECAhRA5aAK7sI50L64g/oGQgU9Z1UTADAKBggqhkjOPQQDAzBJMRcwFQYDVQQKEw5BbnRocm9waWMsIFBCQzEuMCwGA1UEAxMlQW50aHJvcGljIENvbnRlbnQgQ3JlZGVudGlhbHMgUm9vdCBDQTAeFw0yNjA4MDcxODQzNTZaFw0yODA4MDYxOTQzNTZaMEQxFzAVBgNVBAoTDkFudGhyb3BpYywgUEJDMSkwJwYDVQQDEyBBbnRocm9waWMgQ2xhdWRlIENvbnRlbnQgU2lnbmluZzBZMBMGByqGSM49AgEGCCqGSM49AwEHA0IABJh6CmvLUBgFFNU0vUKlOVtE6djd17L5SuwX0LemFisBM3dkd/3cyjxFA3Qo5S46fX0/ihY0VZ7mfb9KF703t5OjWDBWMA4GA1UdDwEB/wQEAwIHgDAVBgNVHSUEDjAMBgorBgEEAYPoXgIBMAwGA1UdEwEB/wQCMAAwHwYDVR0jBBgwFoAUzlHiBIFOZFsj+OPEz5o+nMHXXMIwCgYIKoZIzj0EAwMDZwAwZAIwMXMdFJ4BetLLVY7ORuE9noqbbAZOZn/aArXyTwFAZfKrPzxF2vPoJNf1+UCdg1XGAjBwX1zd9WGqYkqmL5SFqw1QySjr1zJfpJM9+1rdDwSPLMOPOjKuiXjoU/pUUeG9RwmhY3BhZFkNngAAAAAAAAAAAAAAAAAAAAAAAAAAAAAAAAAAAAAAAAAAAAAAAAAAAAAAAAAAAAAAAAAAAAAAAAAAAAAAAAAAAAAAAAAAAAAAAAAAAAAAAAAAAAAAAAAAAAAAAAAAAAAAAAAAAAAAAAAAAAAAAAAAAAAAAAAAAAAAAAAAAAAAAAAAAAAAAAAAAAAAAAAAAAAAAAAAAAAAAAAAAAAAAAAAAAAAAAAAAAAAAAAAAAAAAAAAAAAAAAAAAAAAAAAAAAAAAAAAAAAAAAAAAAAAAAAAAAAAAAAAAAAAAAAAAAAAAAAAAAAAAAAAAAAAAAAAAAAAAAAAAAAAAAAAAAAAAAAAAAAAAAAAAAAAAAAAAAAAAAAAAAAAAAAAAAAAAAAAAAAAAAAAAAAAAAAAAAAAAAAAAAAAAAAAAAAAAAAAAAAAAAAAAAAAAAAAAAAAAAAAAAAAAAAAAAAAAAAAAAAAAAAAAAAAAAAAAAAAAAAAAAAAAAAAAAAAAAAAAAAAAAAAAAAAAAAAAAAAAAAAAAAAAAAAAAAAAAAAAAAAAAAAAAAAAAAAAAAAAAAAAAAAAAAAAAAAAAAAAAAAAAAAAAAAAAAAAAAAAAAAAAAAAAAAAAAAAAAAAAAAAAAAAAAAAAAAAAAAAAAAAAAAAAAAAAAAAAAAAAAAAAAAAAAAAAAAAAAAAAAAAAAAAAAAAAAAAAAAAAAAAAAAAAAAAAAAAAAAAAAAAAAAAAAAAAAAAAAAAAAAAAAAAAAAAAAAAAAAAAAAAAAAAAAAAAAAAAAAAAAAAAAAAAAAAAAAAAAAAAAAAAAAAAAAAAAAAAAAAAAAAAAAAAAAAAAAAAAAAAAAAAAAAAAAAAAAAAAAAAAAAAAAAAAAAAAAAAAAAAAAAAAAAAAAAAAAAAAAAAAAAAAAAAAAAAAAAAAAAAAAAAAAAAAAAAAAAAAAAAAAAAAAAAAAAAAAAAAAAAAAAAAAAAAAAAAAAAAAAAAAAAAAAAAAAAAAAAAAAAAAAAAAAAAAAAAAAAAAAAAAAAAAAAAAAAAAAAAAAAAAAAAAAAAAAAAAAAAAAAAAAAAAAAAAAAAAAAAAAAAAAAAAAAAAAAAAAAAAAAAAAAAAAAAAAAAAAAAAAAAAAAAAAAAAAAAAAAAAAAAAAAAAAAAAAAAAAAAAAAAAAAAAAAAAAAAAAAAAAAAAAAAAAAAAAAAAAAAAAAAAAAAAAAAAAAAAAAAAAAAAAAAAAAAAAAAAAAAAAAAAAAAAAAAAAAAAAAAAAAAAAAAAAAAAAAAAAAAAAAAAAAAAAAAAAAAAAAAAAAAAAAAAAAAAAAAAAAAAAAAAAAAAAAAAAAAAAAAAAAAAAAAAAAAAAAAAAAAAAAAAAAAAAAAAAAAAAAAAAAAAAAAAAAAAAAAAAAAAAAAAAAAAAAAAAAAAAAAAAAAAAAAAAAAAAAAAAAAAAAAAAAAAAAAAAAAAAAAAAAAAAAAAAAAAAAAAAAAAAAAAAAAAAAAAAAAAAAAAAAAAAAAAAAAAAAAAAAAAAAAAAAAAAAAAAAAAAAAAAAAAAAAAAAAAAAAAAAAAAAAAAAAAAAAAAAAAAAAAAAAAAAAAAAAAAAAAAAAAAAAAAAAAAAAAAAAAAAAAAAAAAAAAAAAAAAAAAAAAAAAAAAAAAAAAAAAAAAAAAAAAAAAAAAAAAAAAAAAAAAAAAAAAAAAAAAAAAAAAAAAAAAAAAAAAAAAAAAAAAAAAAAAAAAAAAAAAAAAAAAAAAAAAAAAAAAAAAAAAAAAAAAAAAAAAAAAAAAAAAAAAAAAAAAAAAAAAAAAAAAAAAAAAAAAAAAAAAAAAAAAAAAAAAAAAAAAAAAAAAAAAAAAAAAAAAAAAAAAAAAAAAAAAAAAAAAAAAAAAAAAAAAAAAAAAAAAAAAAAAAAAAAAAAAAAAAAAAAAAAAAAAAAAAAAAAAAAAAAAAAAAAAAAAAAAAAAAAAAAAAAAAAAAAAAAAAAAAAAAAAAAAAAAAAAAAAAAAAAAAAAAAAAAAAAAAAAAAAAAAAAAAAAAAAAAAAAAAAAAAAAAAAAAAAAAAAAAAAAAAAAAAAAAAAAAAAAAAAAAAAAAAAAAAAAAAAAAAAAAAAAAAAAAAAAAAAAAAAAAAAAAAAAAAAAAAAAAAAAAAAAAAAAAAAAAAAAAAAAAAAAAAAAAAAAAAAAAAAAAAAAAAAAAAAAAAAAAAAAAAAAAAAAAAAAAAAAAAAAAAAAAAAAAAAAAAAAAAAAAAAAAAAAAAAAAAAAAAAAAAAAAAAAAAAAAAAAAAAAAAAAAAAAAAAAAAAAAAAAAAAAAAAAAAAAAAAAAAAAAAAAAAAAAAAAAAAAAAAAAAAAAAAAAAAAAAAAAAAAAAAAAAAAAAAAAAAAAAAAAAAAAAAAAAAAAAAAAAAAAAAAAAAAAAAAAAAAAAAAAAAAAAAAAAAAAAAAAAAAAAAAAAAAAAAAAAAAAAAAAAAAAAAAAAAAAAAAAAAAAAAAAAAAAAAAAAAAAAAAAAAAAAAAAAAAAAAAAAAAAAAAAAAAAAAAAAAAAAAAAAAAAAAAAAAAAAAAAAAAAAAAAAAAAAAAAAAAAAAAAAAAAAAAAAAAAAAAAAAAAAAAAAAAAAAAAAAAAAAAAAAAAAAAAAAAAAAAAAAAAAAAAAAAAAAAAAAAAAAAAAAAAAAAAAAAAAAAAAAAAAAAAAAAAAAAAAAAAAAAAAAAAAAAAAAAAAAAAAAAAAAAAAAAAAAAAAAAAAAAAAAAAAAAAAAAAAAAAAAAAAAAAAAAAAAAAAAAAAAAAAAAAAAAAAAAAAAAAAAAAAAAAAAAAAAAAAAAAAAAAAAAAAAAAAAAAAAAAAAAAAAAAAAAAAAAAAAAAAAAAAAAAAAAAAAAAAAAAAAAAAAAAAAAAAAAAAAAAAAAAAAAAAAAAAAAAAAAAAAAAAAAAAAAAAAAAAAAAAAAAAAAAAAAAAAAAAAAAAAAAAAAAAAAAAAAAAAAAAAAAAAAAAAAAAAAAAAAAAAAAAAAAAAAAAAAAAAAAAAAAAAAAAAAAAAAAAAAAAAAAAAAAAAAAAAAAAAAAAAAAAAAAAAAAAAAAAAAAAAAAAAAAAAAAAAAAAAAAAAAAAAAAAAAAAAAAAAAAAAAAAAAAAAAAAAAAAAAAAAAAAAAAAAAAAAAAAAAAAAAAAAAAAAAAAAAAAAAAAAAAAAAAAAAAAAAAAAAAAAAAAAAAAAAAAAAAAAAAAAAAAAAAAAAAAAAAAAAAAAAAAAAAAAAAAAAAAAAAAAAAAAAAAAAAAAAAAAAAAAAAAAAAAAAAAAAAAAAAAAAAAAAAAAAAAAAAAAAAAAAAAAAAAAAAAAAAAAAAAAAAAAAAAAAAAAAAAAAAAAAAAAAAAAAAAAAAAAAAAAAAAAAAAAAAAAAAAAAAAAAAAAAAAAAAAAAAAAAAAAAAAAAAAAAAAAAAAAAAAAAAAAAAAAAAAAAAAAAAAAAAAAAAAAAAAAAAAAAAAAAAAAAAAAAAAAAAAAAAAAAAAAAAAAAAAAAAAAAAAAAAAAAAAAAAAAAAAAAAAAAAAAAAAAAAAAAAAAAAAAAAAAAAAAAAAAAAAAAAAAAAAAAAAAAAAAAAAAAAAAAAAAAAAAAAAAAAAAAAAAAAAAAAAAAAAAAAAAAAAAAAAAAAAAAAAAAAAAAAAAAAAAAAAAAAAAAAAAAAAAAAAAAAAAAAAAAAAAAAAAAAAAAAAAAAAAAAAAAAAAAAAAAAAAAAAAAAAAAAAAAAAAAAAAAAAAAAAAAAAAAAAAAAAAAAAAAAAAAAAAAAAAAAAAAAAAAAAAAAAAAAAAAAAAAAAAAAAAAAAAAAAAAAAAAAAAAAAAAAAAAAAAAAAAAAAAAAAAAAAAAAAAAAAAAAAAAAAAAAAAAAAAAAAAAAAAAAAAAAAAAAAAAAAAAAAAAAAAAAAAAAAAAAAAAAAAAAAAAAAAAAAAAAAAAAAAAAAAAAAAAAAAAAAAAAAAAAAAAAAAAAAAAAAAAAAAAAAAAAAAAAAAAAAAAAAAAAAAAAAAAAAAAAAAAAAAAAAAAAAAAAAAAAAAAAAAAAAAAAAAAAAAAAAAAAAAAAAAAAAAAAAAAAAAAAAAAAAAAAAAAAAAAAAAAAAAAAAAAAAAAAAAAAAAAAAAAAAAAAAAAAAAAAAAAAAAAAAAAAAAAAAAAAAAAAAAAAAAAAAAAAAAAAAAAAAAAAAAAAAAAAAAAAAAAAAAAAAAAAAAAAAAAAAAAAAAAAAAAAAAAAAAAAAAAAAAAAAAAAAAAAAAAAAAAAAAAAAAAAAAAAAAAAAAAAAAAAAAAAAAAAAAAAAAAAAAAAAAAAAAAAAAAAAAAAAAAAAAAAAAAAAAAAAAAAAAAAAAAAAAAAAAAAAAAAAAAAAAAAAAAAAAAAAAAAAAAAAAAAAAAAAAAAAAAAAAAAAAAAAAAAAAAAAAAAAAAAAAAAAAAAAAAAAAAAAAAAAAAAAAAAAAAAAAAAAAAAAAAAAAAAAAAAAAAAAAAAAAAAAAAAAAAAAAAAAAAAAAAAAAAAAAAAAAAAAAAAAAAAAAAAAAAAAAAAAAAAAAAAAAAAAAAAAAAAAAAAAAAAAAAAAAAAAAAAAAAAAAAAAAAAAAAAAAAAAAAAAAAAAAAAAAAAAAAAAAAAAAAAAAAAAAAAAAAAAPZYQKplhKpIs9+ZVghl6ymA017uGy9Hlf1FOL/lWc+ADCfhebRtKq2YK2U2vHBOFQGMTwUMsQH1kec49i/57kTdqtU=</c2pa:manifest></metadata><title>CircularCut</title><g transform="translate(14 14) scale(1.4375)"><path d="M63.49 32.00C63.57 37.13 61.65 43.19 58.91 47.54C56.17 51.88 51.54 55.45 47.05 58.07C42.56 60.68 36.95 63.32 32.00 63.21C27.05 63.10 21.59 60.15 17.33 57.42C13.06 54.68 9.08 51.01 6.41 46.78C3.73 42.54 1.65 37.13 1.28 32.00C0.92 26.87 1.78 20.57 4.24 15.97C6.71 11.38 11.46 6.53 16.09 4.44C20.71 2.35 26.89 3.08 32.00 3.41C37.11 3.74 42.36 4.21 46.76 6.43C51.17 8.65 55.65 12.48 58.44 16.74C61.22 21.00 63.41 26.87 63.49 32.00Z" fill="#1E2E24"></path><path d="M29.09 15.48Q30.03 7.57 35.47 9.04Q36.66 14.11 37.74 16.24Q42.51 9.86 46.49 13.85Q44.98 18.83 44.85 21.22Q52.18 18.08 53.62 23.53Q49.83 27.09 48.52 29.09Q56.43 30.03 54.96 35.47Q49.89 36.66 47.76 37.74Q54.14 42.51 50.15 46.49Q45.17 44.98 42.78 44.85Q45.92 52.18 40.47 53.62Q36.91 49.83 34.91 48.52Q33.97 56.43 28.53 54.96Q27.34 49.89 26.26 47.76Q21.49 54.14 17.51 50.15Q19.02 45.17 19.15 42.78Q11.82 45.92 10.38 40.47Q14.17 36.91 15.48 34.91Q7.57 33.97 9.04 28.53Q14.11 27.34 16.24 26.26Q9.86 21.49 13.85 17.51Q18.83 19.02 21.22 19.15Q18.08 11.82 23.53 10.38Q27.09 14.17 29.09 15.48ZM38.02 32A6.02 6.02 0 1 0 25.98 32A6.02 6.02 0 1 0 38.02 32Z" fill="#D4E57C" fill-rule="evenodd"></path><circle cx="32" cy="32" r="2.24" fill="#D4E57C"></circle></g><path d="M145.75 92.58L145.75 92.58Q138.80 92.58 134.56 88.25Q130.33 83.93 130.33 76.15L130.33 76.15L130.33 46.62Q130.33 37.31 134.02 32.36Q137.71 27.42 146.04 27.42L146.04 27.42Q150.58 27.42 154.13 29.09Q157.67 30.76 159.71 34.09Q161.75 37.42 161.75 42.47L161.75 42.47L161.75 53.53L149.02 53.53L149.02 44.07Q149.02 41.20 148.29 40.20Q147.56 39.20 146.04 39.20L146.04 39.20Q144.25 39.20 143.64 40.49Q143.02 41.78 143.02 43.93L143.02 43.93L143.02 75.96Q143.02 78.62 143.80 79.71Q144.58 80.80 146.04 80.80L146.04 80.80Q147.67 80.80 148.35 79.45Q149.02 78.11 149.02 75.96L149.02 75.96L149.02 64.44L161.89 64.44L161.89 76.55Q161.89 84.98 157.64 88.78Q153.38 92.58 145.75 92.58ZM177.93 92L165.56 92L165.56 28L177.93 28L177.93 92ZM195.96 92L183.02 92L183.02 28L202.65 28Q207.56 28 210.07 30.24Q212.58 32.47 213.44 36.49Q214.29 40.51 214.29 45.93L214.29 45.93Q214.29 51.16 212.96 54.29Q211.64 57.42 207.96 58.62L207.96 58.62Q210.98 59.24 212.20 61.62Q213.42 64 213.42 67.78L213.42 67.78L213.42 92L200.80 92L200.80 66.95Q200.80 64.15 199.65 63.47Q198.51 62.80 195.96 62.80L195.96 62.80L195.96 92ZM196.04 39.85L196.04 51.71L199.13 51.71Q201.78 51.71 201.78 45.93L201.78 45.93Q201.78 42.18 201.20 41.02Q200.62 39.85 199.02 39.85L199.02 39.85L196.04 39.85ZM233.42 92.58L233.42 92.58Q226.47 92.58 222.24 88.25Q218 83.93 218 76.15L218 76.15L218 46.62Q218 37.31 221.69 32.36Q225.38 27.42 233.71 27.42L233.71 27.42Q238.25 27.42 241.80 29.09Q245.35 30.76 247.38 34.09Q249.42 37.42 249.42 42.47L249.42 42.47L249.42 53.53L236.69 53.53L236.69 44.07Q236.69 41.20 235.96 40.20Q235.24 39.20 233.71 39.20L233.71 39.20Q231.93 39.20 231.31 40.49Q230.69 41.78 230.69 43.93L230.69 43.93L230.69 75.96Q230.69 78.62 231.47 79.71Q232.25 80.80 233.71 80.80L233.71 80.80Q235.35 80.80 236.02 79.45Q236.69 78.11 236.69 75.96L236.69 75.96L236.69 64.44L249.56 64.44L249.56 76.55Q249.56 84.98 245.31 88.78Q241.05 92.58 233.42 92.58ZM268.62 92.58L268.62 92.58Q260.62 92.58 256.84 88.09Q253.05 83.60 253.05 74.87L253.05 74.87L253.05 28L265.49 28L265.49 74.36Q265.49 75.96 265.67 77.44Q265.85 78.91 266.51 79.85Q267.16 80.80 268.62 80.80L268.62 80.80Q270.11 80.80 270.76 79.87Q271.42 78.95 271.58 77.45Q271.75 75.96 271.75 74.36L271.75 74.36L271.75 28L284.18 28L284.18 74.87Q284.18 83.60 280.40 88.09Q276.62 92.58 268.62 92.58ZM315.05 92L289.09 92L289.09 28L301.89 28L301.89 81.09L315.05 81.09L315.05 92ZM329.38 92L316.95 92L323.13 28L344.84 28L350.91 92L338.80 92L337.89 81.67L330.18 81.67L329.38 92ZM333.53 38.91L331.09 71.45L336.91 71.45L334.11 38.91L333.53 38.91ZM367.78 92L354.84 92L354.84 28L374.47 28Q379.38 28 381.89 30.24Q384.40 32.47 385.25 36.49Q386.11 40.51 386.11 45.93L386.11 45.93Q386.11 51.16 384.78 54.29Q383.45 57.42 379.78 58.62L379.78 58.62Q382.80 59.24 384.02 61.62Q385.24 64 385.24 67.78L385.24 67.78L385.24 92L372.62 92L372.62 66.95Q372.62 64.15 371.47 63.47Q370.33 62.80 367.78 62.80L367.78 62.80L367.78 92ZM367.85 39.85L367.85 51.71L370.95 51.71Q373.60 51.71 373.60 45.93L373.60 45.93Q373.60 42.18 373.02 41.02Q372.44 39.85 370.84 39.85L370.84 39.85L367.85 39.85ZM405.24 92.58L405.24 92.58Q398.29 92.58 394.05 88.25Q389.82 83.93 389.82 76.15L389.82 76.15L389.82 46.62Q389.82 37.31 393.51 32.36Q397.20 27.42 405.53 27.42L405.53 27.42Q410.07 27.42 413.62 29.09Q417.16 30.76 419.20 34.09Q421.24 37.42 421.24 42.47L421.24 42.47L421.24 53.53L408.51 53.53L408.51 44.07Q408.51 41.20 407.78 40.20Q407.05 39.20 405.53 39.20L405.53 39.20Q403.75 39.20 403.13 40.49Q402.51 41.78 402.51 43.93L402.51 43.93L402.51 75.96Q402.51 78.62 403.29 79.71Q404.07 80.80 405.53 80.80L405.53 80.80Q407.16 80.80 407.84 79.45Q408.51 78.11 408.51 75.96L408.51 75.96L408.51 64.44L421.38 64.44L421.38 76.55Q421.38 84.98 417.13 88.78Q412.87 92.58 405.24 92.58ZM440.44 92.58L440.44 92.58Q432.44 92.58 428.65 88.09Q424.87 83.60 424.87 74.87L424.87 74.87L424.87 28L437.31 28L437.31 74.36Q437.31 75.96 437.49 77.44Q437.67 78.91 438.33 79.85Q438.98 80.80 440.44 80.80L440.44 80.80Q441.93 80.80 442.58 79.87Q443.24 78.95 443.40 77.45Q443.56 75.96 443.56 74.36L443.56 74.36L443.56 28L456 28L456 74.87Q456 83.60 452.22 88.09Q448.44 92.58 440.44 92.58ZM479.20 92L466.40 92L466.40 40.29L458.80 40.29L458.80 28L486.80 28L486.80 40.29L479.20 40.29L479.20 92Z" fill="#1E2E24"></path></svg>